# xmcd CD database file
#
# Track frame offsets:
#	150
#	20186
#	36633
#	52563
#	66373
#	83622
#	96094
#	113168
#	129976
#	143479
#	158503
#	176348
#	189039
#
# Disc length: 2676 seconds
#
# Revision: 0
# Processed by: cddbd v1.5.2PL0 Copyright (c) Steve Scherf et al.
# Submitted via: CDex 1.51
#
DISCID=9a0a720d
DTITLE=Ann Pascoe - Somewhere Between Memories And Dreams
DYEAR=2008
DGENRE=Country
TTITLE0=Ann Pascoe  - We've Got A Country Song
TTITLE1=Ann Pascoe - Somewhere Between Memories And Dreams
TTITLE2=Ann Pascoe - Broken Hearts Will Slowly Mend
TTITLE3=Ann Pascoe - Country In My Bones
TTITLE4=Ann Pascoe - Mummy If I Be Good
TTITLE5=Ann Pascoe - San Antonio Stroll
TTITLE6=Ann Pascoe - Hello Blues
TTITLE7=Ann Pascoe - It's My Heart
TTITLE8=Ann Pascoe - Old Broken Hearts
TTITLE9=Ann Pascoe - Gotta Lotta Livin'
TTITLE10=Ann Pascoe - This Can't Go Anywhere But Wrong
TTITLE11=Ann Pascoe - Could It Be My Eyes Are Lying
TTITLE12=Ann Pascoe - It Ain't That Way
EXTD=YEAR: 2008
EXTT0=
EXTT1=
EXTT2=
EXTT3=
EXTT4=
EXTT5=
EXTT6=
EXTT7=
EXTT8=
EXTT9=
EXTT10=
EXTT11=
EXTT12=
PLAYORDER=
